<?xml version="1.0" encoding="UTF-8"?>
<svg width="24px" height="24px" viewBox="0 0 24 24" version="1.1" xmlns="http://www.w3.org/2000/svg" xmlns:xlink="http://www.w3.org/1999/xlink">
    <!-- Generator: Sketch 51.2 (57519) - http://www.bohemiancoding.com/sketch -->
    <title>cca-google-maps</title>
    <desc>Created with Sketch.</desc>
    <defs></defs>
    <g id="Page-1" stroke="none" stroke-width="1" fill="none" fill-rule="evenodd">
        <g id="Component-Palette-NEED-PADDING,-CANVAS-24px" transform="translate(-1356.000000, -204.000000)" fill="#ffffff" fill-rule="nonzero">
            <path d="M1370,217 L1368,212 L1368,211 C1368,209.343146 1369.34315,208 1371,208 C1372.65685,208 1374,209.343146 1374,211 L1374,212 L1372,217 C1372,217.552285 1371.55228,218 1371,218 C1370.44772,218 1370,217.552285 1370,217 Z M1371,213 C1372.10457,213 1373,212.104569 1373,211 C1373,209.895431 1372.10457,209 1371,209 C1369.89543,209 1369,209.895431 1369,211 C1369,212.104569 1369.89543,213 1371,213 Z M1371,212 C1370.44772,212 1370,211.552285 1370,211 C1370,210.447715 1370.44772,210 1371,210 C1371.55228,210 1372,210.447715 1372,211 C1372,211.552285 1371.55228,212 1371,212 Z M1375,211.632227 L1375.39496,211.802024 C1375.76209,211.959856 1376,212.321106 1376,212.720723 L1376,223.001081 C1376,223.716073 1375.27143,224.200055 1374.61235,223.922886 L1370.61235,222.240737 C1370.57343,222.22437 1370.53594,222.205723 1370.5,222.18499 C1370.46406,222.205723 1370.42657,222.22437 1370.38765,222.240737 L1366.38765,223.922886 C1366.07982,224.05234 1365.75684,224.015754 1365.5,223.867142 C1365.24316,224.015754 1364.92018,224.05234 1364.61235,223.922886 L1360.61235,222.240737 C1360.24132,222.084706 1360,221.721435 1360,221.318932 L1360,211.001081 C1360,210.28268 1360.73496,209.798644 1361.39496,210.082382 L1365.39496,211.802024 C1365.43127,211.817635 1365.46632,211.835237 1365.5,211.854669 C1365.53368,211.835237 1365.56873,211.817635 1365.60504,211.802024 L1367,211.202317 L1367,212.290813 L1366,212.720723 L1366,223.001081 L1370,221.318932 L1370,219 L1371,219 L1371,221.318932 L1375,223.001081 L1375,211.632227 Z M1361,211.001081 L1361,221.318932 L1365,223.001081 L1365,212.720723 L1361,211.001081 Z" id="Combined-Shape"></path>
        </g>
    </g>
</svg>