<svg viewBox="0 0 124 16" xmlns="http://www.w3.org/2000/svg"><path d="m112.4 13.2h11.01l-1.8 2.8h-9.5c-4.37 0-7.92-3.55-7.92-7.92 0-2.1.83-4.12 2.32-5.6a7.892 7.892 0 0 1 5.6-2.32h11.06l-1.81 2.79h-8.96c-2.28 0-4.29 1.5-4.94 3.69l14.85.04-1.8 2.8h-13.06c.63 2.17 2.6 3.72 4.93 3.72zm-9.25 2.8h-13.95c-.43 0-.82-.17-1.1-.45s-.44-.66-.44-1.06v-14.34h3.06v13.05h14.23zm-27.9-2.8h11.02l-1.8 2.8h-9.51c-2.1 0-4.11-.84-5.6-2.32a7.951 7.951 0 0 1 -2.32-5.6c0-2.1.83-4.12 2.32-5.6a7.892 7.892 0 0 1 5.6-2.32h11.05l-1.79 2.79h-8.97a5.127 5.127 0 1 0 0 10.25zm-10.18 2.8-1.7-2.79h-8.25l-1.8-2.79h8.15l-4.31-6.92-7.91 12.5h-3.6l9.62-15.02c.43-.61 1.12-.98 1.87-.98h.05c.72 0 1.4.35 1.82.94l9.66 15.06zm-24.9-5.13h-1.4l6.14 5.13h-4.44l-9.12-7.93 8.61.01a2.57 2.57 0 1 0 0-5.14h-10.1v13.06h-3.06v-15.85h13.37c1.42 0 2.78.56 3.79 1.57s1.57 2.37 1.57 3.79-.56 2.78-1.57 3.79-2.37 1.56-3.79 1.57zm-22.93 5.13h-9.32c-4.38 0-7.92-3.55-7.92-7.92 0-2.1.83-4.12 2.32-5.6s3.5-2.32 5.6-2.32h9.41c4.37 0 7.92 3.55 7.92 7.92s-3.54 7.92-7.92 7.92zm-.2-13.05h-8.83c-1.36 0-2.66.54-3.63 1.5s-1.5 2.27-1.5 3.63.54 2.66 1.5 3.63 2.27 1.5 3.63 1.5h8.82c1.36 0 2.66-.54 3.62-1.5s1.5-2.27 1.5-3.63a5.11 5.11 0 0 0 -5.11-5.13z" fill="#000"/></svg>